<?xml version="1.0" encoding="iso-8859-1"?>
<!-- Generator: Adobe Illustrator 19.0.0, SVG Export Plug-In . SVG Version: 6.00 Build 0)  -->
<svg version="1.1" id="Capa_1" xmlns="http://www.w3.org/2000/svg" xmlns:xlink="http://www.w3.org/1999/xlink" x="0px" y="0px"
	 viewBox="0 0 512 512" style="enable-background:new 0 0 512 512;" xml:space="preserve">
<path style="fill:#303C42;" d="M469.333,64H42.667C19.146,64,0,83.135,0,106.667v256c0,23.531,19.146,42.667,42.667,42.667H224
	v21.333h-64c-5.896,0-10.667,4.771-10.667,10.667S154.104,448,160,448h192c5.896,0,10.667-4.771,10.667-10.667
	s-4.771-10.667-10.667-10.667h-64v-21.333h181.333c23.521,0,42.667-19.135,42.667-42.667v-256C512,83.135,492.854,64,469.333,64z"/>
<path style="fill:#5C6671;" d="M490.667,362.667c0,11.76-9.563,21.333-21.333,21.333H42.667c-11.771,0-21.333-9.573-21.333-21.333
	v-256c0-11.76,9.563-21.333,21.333-21.333h426.667c11.771,0,21.333,9.573,21.333,21.333V362.667z"/>
<linearGradient id="SVGID_1_" gradientUnits="userSpaceOnUse" x1="-46.1216" y1="640.8086" x2="-23.2847" y2="630.1602" gradientTransform="matrix(21.3333 0 0 -21.3333 996.3334 13791.667)">
	<stop  offset="0" style="stop-color:#FFFFFF;stop-opacity:0.2"/>
	<stop  offset="1" style="stop-color:#FFFFFF;stop-opacity:0"/>
</linearGradient>
<path style="fill:url(#SVGID_1_);" d="M490.667,362.667c0,11.76-9.563,21.333-21.333,21.333H42.667
	c-11.771,0-21.333-9.573-21.333-21.333v-256c0-11.76,9.563-21.333,21.333-21.333h426.667c11.771,0,21.333,9.573,21.333,21.333
	V362.667z"/>
<linearGradient id="SVGID_2_" gradientUnits="userSpaceOnUse" x1="-43.4099" y1="644.1912" x2="-25.9963" y2="626.7776" gradientTransform="matrix(21.3333 0 0 -21.3333 996.3334 13791.667)">
	<stop  offset="0" style="stop-color:#FFFFFF;stop-opacity:0.2"/>
	<stop  offset="1" style="stop-color:#FFFFFF;stop-opacity:0"/>
</linearGradient>
<path style="fill:url(#SVGID_2_);" d="M490.667,362.667c0,11.76-9.563,21.333-21.333,21.333H42.667
	c-11.771,0-21.333-9.573-21.333-21.333v-256c0-11.76,9.563-21.333,21.333-21.333h426.667c11.771,0,21.333,9.573,21.333,21.333
	V362.667z"/>
<linearGradient id="SVGID_3_" gradientUnits="userSpaceOnUse" x1="-47.0278" y1="641.2312" x2="-22.3785" y2="629.7375" gradientTransform="matrix(21.3333 0 0 -21.3333 996.3334 13791.667)">
	<stop  offset="0" style="stop-color:#FFFFFF;stop-opacity:0.2"/>
	<stop  offset="1" style="stop-color:#FFFFFF;stop-opacity:0"/>
</linearGradient>
<path style="fill:url(#SVGID_3_);" d="M469.333,64H42.667C19.146,64,0,83.135,0,106.667v256c0,23.531,19.146,42.667,42.667,42.667
	H224v21.333h-64c-5.896,0-10.667,4.771-10.667,10.667S154.104,448,160,448h192c5.896,0,10.667-4.771,10.667-10.667
	s-4.771-10.667-10.667-10.667h-64v-21.333h181.333c23.521,0,42.667-19.135,42.667-42.667v-256C512,83.135,492.854,64,469.333,64z"/>
<g>
</g>
<g>
</g>
<g>
</g>
<g>
</g>
<g>
</g>
<g>
</g>
<g>
</g>
<g>
</g>
<g>
</g>
<g>
</g>
<g>
</g>
<g>
</g>
<g>
</g>
<g>
</g>
<g>
</g>
</svg>
